<?xml version="1.0" standalone="no"?>
<!DOCTYPE svg PUBLIC "-//W3C//DTD SVG 20010904//EN"
 "http://www.w3.org/TR/2001/REC-SVG-20010904/DTD/svg10.dtd">
<svg version="1.0" xmlns="http://www.w3.org/2000/svg"
 width="260.000000pt" height="196.000000pt" viewBox="0 0 260.000000 196.000000"
 preserveAspectRatio="xMidYMid meet">

<g transform="translate(0.000000,196.000000) scale(0.100000,-0.100000)"
fill="#000000" stroke="none">
<path d="M105 1848 c-3 -7 -4 -269 -3 -583 l3 -570 199 -3 c155 -2 211 1 252
13 66 19 108 65 123 135 15 70 15 801 0 872 -14 64 -65 120 -124 137 -58 16
-444 15 -450 -1z m369 -194 c14 -13 16 -62 16 -378 0 -268 -3 -365 -12 -374
-7 -7 -44 -12 -95 -12 l-83 0 0 390 0 390 79 0 c59 0 84 -4 95 -16z"/>
<path d="M922 1768 l-82 -93 3 -490 2 -490 90 0 90 0 3 583 c2 468 0 582 -11
582 -7 0 -49 -42 -95 -92z"/>
<path d="M1186 1845 c-3 -9 -6 -268 -6 -575 0 -476 2 -559 15 -570 10 -9 71
-11 227 -8 234 3 250 7 302 68 45 54 47 82 44 538 l-3 427 -24 41 c-13 24 -41
52 -65 65 -39 23 -51 24 -262 27 -198 3 -222 2 -228 -13z m370 -189 c18 -14
19 -31 22 -364 2 -218 -1 -359 -7 -375 -10 -26 -12 -27 -101 -27 l-90 0 0 390
0 390 78 0 c52 0 85 -5 98 -14z"/>
<path d="M2037 1845 c-22 -7 -50 -24 -64 -37 -52 -48 -53 -53 -53 -530 0 -410
2 -446 19 -484 38 -83 114 -109 305 -102 133 5 165 15 209 68 15 17 31 47 37
68 15 55 13 853 -2 905 -17 55 -65 101 -121 116 -64 16 -282 14 -330 -4z m257
-191 c14 -13 16 -62 16 -379 0 -317 -2 -366 -16 -379 -11 -11 -35 -16 -81 -16
-110 0 -103 -27 -103 396 0 316 2 365 16 378 11 12 35 16 84 16 49 0 73 -4 84
-16z"/>
<path d="M120 464 c0 -14 -5 -34 -10 -44 -7 -13 -7 -21 0 -25 5 -3 10 -19 10
-35 0 -30 14 -48 24 -31 4 5 2 12 -4 16 -14 9 -13 118 2 133 9 9 8 12 -5 12
-12 0 -17 -8 -17 -26z"/>
<path d="M797 443 c-4 -21 -10 -53 -13 -72 -5 -23 -4 -32 3 -28 6 4 14 28 17
54 4 27 9 56 12 66 3 9 1 17 -4 17 -5 0 -12 -17 -15 -37z"/>
<path d="M870 405 c0 -37 4 -65 10 -65 6 0 10 28 10 65 0 37 -4 65 -10 65 -6
0 -10 -28 -10 -65z"/>
<path d="M1124 411 c1 -45 5 -66 15 -69 10 -3 11 0 5 9 -5 8 -12 39 -15 69
l-7 55 2 -64z"/>
<path d="M1171 413 c-1 -34 3 -64 7 -67 5 -3 7 21 5 52 -6 81 -11 87 -12 15z"/>
<path d="M999 444 c-2 -40 3 -89 10 -97 4 -4 6 18 4 49 -2 55 -12 87 -14 48z"/>
<path d="M1666 431 c-4 -5 -2 -12 3 -15 5 -4 12 -2 15 3 4 5 2 12 -3 15 -5 4
-12 2 -15 -3z"/>
<path d="M910 385 c0 -25 5 -45 10 -45 6 0 10 18 10 41 0 53 23 48 31 -7 l6
-39 2 48 c1 46 0 47 -29 47 -29 0 -30 -2 -30 -45z"/>
<path d="M1047 424 c-9 -9 -9 -47 -1 -68 7 -17 44 -22 44 -6 0 5 -7 7 -15 4
-9 -4 -15 0 -15 10 0 10 8 16 21 16 15 0 20 5 17 23 -3 22 -36 36 -51 21z m33
-19 c0 -8 -4 -15 -10 -15 -5 0 -10 7 -10 15 0 8 5 15 10 15 6 0 10 -7 10 -15z"/>
<path d="M1210 385 c0 -25 5 -45 10 -45 6 0 10 20 10 45 0 25 -4 45 -10 45 -5
0 -10 -20 -10 -45z"/>
<path d="M1257 423 c-4 -3 -7 -21 -7 -40 0 -30 8 -38 33 -34 15 2 6 -28 -10
-33 -11 -3 -7 -4 7 -3 23 2 25 6 28 60 3 54 2 57 -21 57 -13 0 -27 -3 -30 -7z
m33 -33 c0 -31 -16 -41 -26 -15 -8 19 2 45 16 45 5 0 10 -13 10 -30z"/>
<path d="M1337 423 c-4 -3 -7 -21 -7 -40 0 -35 23 -54 42 -35 7 7 5 10 -7 9
-10 -1 -20 4 -22 11 -3 7 5 12 21 12 27 0 31 7 20 34 -6 16 -35 22 -47 9z m33
-18 c0 -8 -4 -15 -9 -15 -13 0 -22 16 -14 24 11 11 23 6 23 -9z"/>
<path d="M1412 383 l1 -48 4 43 c3 27 9 42 18 42 9 0 15 -15 18 -42 l4 -43 1
48 c2 44 0 47 -23 47 -23 0 -25 -3 -23 -47z"/>
<path d="M1490 390 c0 -43 21 -63 43 -40 9 9 8 11 -8 8 -16 -2 -21 3 -23 31
-3 30 -1 33 17 28 12 -3 21 -1 21 4 0 5 -11 9 -25 9 -23 0 -25 -4 -25 -40z"/>
<path d="M1560 390 c0 -43 21 -63 43 -40 9 9 8 11 -7 8 -10 -1 -21 3 -23 10
-3 7 4 12 16 12 16 0 21 6 21 25 0 20 -5 25 -25 25 -23 0 -25 -4 -25 -40z m40
14 c0 -9 -5 -14 -12 -12 -18 6 -21 28 -4 28 9 0 16 -7 16 -16z"/>
<path d="M1660 350 c0 -5 7 -10 15 -10 8 0 15 5 15 10 0 6 -7 10 -15 10 -8 0
-15 -4 -15 -10z"/>
<path d="M1996 282 c-3 -6 -2 -13 4 -17 14 -9 13 -118 -2 -133 -9 -9 -8 -12 5
-12 21 0 31 42 28 111 -1 31 -25 67 -35 51z"/>
<path d="M111 260 c-7 -4 -13 -11 -13 -15 0 -12 24 -24 37 -19 15 6 15 32 0
38 -7 2 -17 1 -24 -4z"/>
<path d="M202 250 c-9 -25 -3 -110 9 -110 5 0 9 18 9 40 0 25 5 40 13 40 8 0
8 3 -2 9 -12 8 -12 12 -2 25 11 14 11 16 -3 16 -9 0 -20 -9 -24 -20z"/>
<path d="M425 260 c3 -5 8 -10 11 -10 2 0 4 5 4 10 0 6 -5 10 -11 10 -5 0 -7
-4 -4 -10z"/>
<path d="M620 205 l0 -65 29 0 c32 0 41 14 41 65 0 51 -9 65 -41 65 l-29 0 0
-65z m48 -3 c-5 -59 -28 -52 -28 8 0 46 2 51 16 40 9 -9 14 -26 12 -48z"/>
<path d="M910 205 c0 -37 4 -65 10 -65 6 0 10 15 10 34 0 19 5 38 10 41 6 4
10 -10 10 -34 0 -23 5 -41 10 -41 6 0 10 20 10 45 0 38 -3 45 -20 45 -13 0
-20 7 -20 20 0 11 -4 20 -10 20 -6 0 -10 -28 -10 -65z"/>
<path d="M868 248 c-8 -24 4 -108 16 -108 10 0 11 20 7 108 -1 6 -5 12 -10 12
-5 0 -11 -6 -13 -12z"/>
<path d="M250 185 c0 -45 1 -46 28 -43 24 3 27 7 27 43 0 36 -3 40 -27 43 -27
3 -28 2 -28 -43z m40 0 c0 -13 -4 -27 -10 -30 -6 -4 -10 8 -10 30 0 22 4 34
10 30 6 -3 10 -17 10 -30z"/>
<path d="M330 185 c0 -25 5 -45 10 -45 6 0 10 15 10 33 0 18 5 38 12 45 9 9 7
12 -10 12 -19 0 -22 -5 -22 -45z"/>
<path d="M420 185 c0 -25 5 -45 10 -45 6 0 10 20 10 45 0 25 -4 45 -10 45 -5
0 -10 -20 -10 -45z"/>
<path d="M460 185 c0 -54 18 -60 22 -7 4 47 21 44 29 -5 6 -38 6 -38 8 10 1
46 0 47 -29 47 -29 0 -30 -2 -30 -45z"/>
<path d="M705 211 c-11 -35 5 -71 31 -71 13 0 24 5 24 10 0 6 -7 10 -16 8 -10
-2 -19 3 -21 10 -3 7 5 12 22 12 21 0 26 4 21 16 -3 9 -6 20 -6 25 0 18 -49 9
-55 -10z m39 -12 c-3 -5 -10 -7 -15 -3 -5 3 -7 10 -3 15 3 5 10 7 15 3 5 -3 7
-10 3 -15z"/>
<path d="M780 165 c0 -37 4 -65 10 -65 6 0 10 9 10 20 0 13 7 20 20 20 17 0
20 7 20 45 0 43 -1 45 -30 45 l-30 0 0 -65z m48 14 c-1 -13 -7 -23 -13 -22
-13 3 -18 30 -11 50 10 24 29 1 24 -28z"/>
<path d="M1043 206 c18 -14 18 -15 0 -24 -27 -16 -9 -25 21 -11 31 14 33 25 7
39 -29 15 -50 12 -28 -4z"/>
<path d="M540 190 c0 -5 14 -10 30 -10 17 0 30 5 30 10 0 6 -13 10 -30 10 -16
0 -30 -4 -30 -10z"/>
</g>
</svg>
