<?xml version="1.0" standalone="no"?>
<!DOCTYPE svg PUBLIC "-//W3C//DTD SVG 20010904//EN"
 "http://www.w3.org/TR/2001/REC-SVG-20010904/DTD/svg10.dtd">
<svg version="1.0" xmlns="http://www.w3.org/2000/svg"
 width="225.000000pt" height="270.000000pt" viewBox="0 0 225.000000 270.000000"
 preserveAspectRatio="xMidYMid meet">

<g transform="translate(0.000000,270.000000) scale(0.100000,-0.100000)"
fill="#000000" stroke="none">
<path d="M0 1350 l0 -1350 586 0 c386 0 583 3 579 10 -4 7 3 7 19 0 17 -6 26
-6 26 0 0 6 5 10 11 10 5 0 7 -4 4 -10 -4 -6 179 -10 510 -10 l515 0 0 1350 0
1350 -1125 0 -1125 0 0 -1350z m1228 1323 c-10 -2 -26 -2 -35 0 -10 3 -2 5 17
5 19 0 27 -2 18 -5z m-235 -10 c-7 -2 -19 -2 -25 0 -7 3 -2 5 12 5 14 0 19 -2
13 -5z m-143 -27 c0 -2 -13 -9 -30 -15 -35 -12 -41 -5 -7 9 25 10 37 12 37 6z
m575 -6 c3 -6 -1 -7 -9 -4 -18 7 -21 14 -7 14 6 0 13 -4 16 -10z m-115 -26
c219 -48 406 -169 572 -371 36 -45 56 -78 52 -85 -4 -7 -3 -10 1 -6 9 9 56
-63 49 -74 -3 -5 -1 -8 5 -8 5 0 16 -13 24 -30 15 -29 15 -29 -5 -19 -11 6
-17 17 -14 25 3 8 1 14 -3 14 -13 0 -111 146 -112 167 0 10 -3 13 -5 6 -3 -7
-33 18 -71 58 -214 227 -515 340 -793 300 -372 -55 -697 -352 -838 -766 -57
-167 -75 -281 -75 -470 -1 -182 13 -282 57 -434 23 -80 25 -125 4 -86 -16 28
-55 155 -74 246 -26 119 -27 447 -1 569 98 465 382 817 757 940 149 49 317 57
470 24z m195 -4 c3 -6 -1 -7 -9 -4 -18 7 -21 14 -7 14 6 0 13 -4 16 -10z m165
-90 c0 -5 -2 -10 -4 -10 -3 0 -8 5 -11 10 -3 6 -1 10 4 10 6 0 11 -4 11 -10z
m66 -51 c3 -6 -5 -3 -20 6 -14 10 -26 19 -26 22 0 7 39 -17 46 -28z m-1256
-33 c0 -3 -4 -8 -10 -11 -5 -3 -10 -1 -10 4 0 6 5 11 10 11 6 0 10 -2 10 -4z
m1320 -18 c0 -6 7 -7 16 -4 8 3 12 2 9 -4 -3 -5 4 -18 17 -29 12 -12 19 -23
17 -26 -3 -2 -25 16 -50 41 -24 25 -36 42 -26 38 9 -3 17 -11 17 -16z m-1410
-73 c-13 -14 -26 -23 -28 -20 -4 4 38 44 47 45 3 0 -6 -11 -19 -25z m360 -252
c18 -32 54 -87 80 -123 26 -36 52 -75 59 -87 13 -25 31 -144 21 -138 -4 2 -12
-7 -18 -21 -7 -13 -30 -49 -52 -78 -22 -29 -43 -67 -46 -85 -8 -41 -26 -35
-38 12 -8 32 -5 47 29 117 44 95 44 141 2 203 -38 56 -114 215 -137 287 -20
62 -26 140 -13 154 4 3 23 -36 44 -88 20 -52 51 -121 69 -153z m1145 238 c-3
-5 -1 -12 5 -16 5 -3 10 -11 10 -18 0 -6 -6 -2 -14 8 -13 18 -13 35 0 35 3 0
3 -4 -1 -9z m-275 -44 c0 -76 -68 -245 -156 -387 -49 -80 -49 -122 1 -218 34
-64 37 -77 29 -108 -11 -42 -26 -46 -32 -7 -2 15 -21 52 -43 81 -92 122 -91
177 4 315 73 104 136 224 164 309 10 32 21 58 26 58 4 0 7 -19 7 -43z m-1270
19 c0 -2 -7 -9 -15 -16 -13 -11 -14 -10 -9 4 5 14 24 23 24 12z m760 -151 c0
-109 -1 -115 -24 -130 -15 -10 -30 -13 -43 -8 -29 12 -136 130 -123 138 16 10
51 -4 92 -36 l36 -28 11 65 c12 69 29 114 43 114 4 0 8 -52 8 -115z m63 78 c8
-21 18 -61 22 -89 l7 -52 56 34 c55 33 75 39 72 19 -1 -6 -28 -38 -61 -73 -62
-64 -79 -70 -116 -40 -15 12 -19 238 -4 238 5 0 16 -17 24 -37z m-573 -12 c0
-61 92 -287 146 -358 29 -39 32 -93 5 -117 -18 -16 -20 -16 -39 11 -57 82
-117 244 -128 348 -7 65 -8 81 -5 120 2 22 21 18 21 -4z m-336 -31 c-15 -22
-29 -38 -31 -36 -5 5 46 76 53 76 3 0 -8 -18 -22 -40z m1403 -47 c-7 -108 -49
-245 -102 -334 -21 -35 -40 -66 -41 -68 -2 -2 -10 2 -19 9 -21 18 -19 67 6
101 37 52 108 214 130 297 12 45 24 82 27 82 3 0 2 -39 -1 -87z m342 22 c0 -5
-6 -1 -14 9 -8 10 -11 24 -8 29 6 10 21 -16 22 -38z m36 -46 c11 -17 -1 -21
-15 -4 -8 9 -8 15 -2 15 6 0 14 -5 17 -11z m-1482 -69 c14 -120 62 -251 132
-365 31 -50 32 -89 3 -109 -27 -19 -41 -20 -108 -5 -59 13 -60 27 -5 46 21 7
40 15 42 17 2 2 -12 35 -32 73 -54 107 -77 244 -59 356 9 52 20 46 27 -13z
m-380 4 c-7 -19 -10 -18 -16 5 -3 13 -1 18 9 14 7 -2 10 -11 7 -19z m1536 -75
c1 -84 -29 -203 -73 -286 -22 -41 -30 -66 -23 -68 7 -2 29 -9 50 -15 53 -16
34 -32 -43 -38 -104 -8 -115 28 -46 147 53 92 89 190 106 291 15 88 28 74 29
-31z m317 6 c-3 -8 -1 -15 4 -15 6 0 10 -9 10 -20 0 -11 5 -20 11 -20 5 0 7
-5 3 -11 -9 -15 -44 50 -37 68 3 7 7 13 10 13 3 0 3 -7 -1 -15z m-1896 -25 c0
-5 -5 -10 -11 -10 -5 0 -7 5 -4 10 3 6 8 10 11 10 2 0 4 -4 4 -10z m-50 -135
c0 -8 -7 -15 -15 -15 -13 0 -14 3 -3 15 16 18 18 18 18 0z m2087 -47 c-3 -8
-6 -5 -6 6 -1 11 2 17 5 13 3 -3 4 -12 1 -19z m-2104 -8 c-3 -12 -8 -19 -11
-16 -5 6 5 36 12 36 2 0 2 -9 -1 -20z m1031 -33 c9 -15 6 -23 -20 -46 -46 -42
-118 -67 -149 -53 -16 7 -25 20 -25 33 0 12 3 20 6 16 3 -3 27 6 52 21 108 60
116 61 136 29z m164 -25 c15 -11 37 -23 50 -26 42 -14 16 -46 -38 -46 -36 0
-111 39 -138 72 -11 14 -10 19 9 32 19 13 26 13 56 1 19 -8 46 -23 61 -33z
m919 26 c-3 -8 -6 -5 -6 6 -1 11 2 17 5 13 3 -3 4 -12 1 -19z m-2135 -40 c-6
-6 -7 0 -4 19 5 21 7 23 10 9 2 -10 0 -22 -6 -28z m1062 -64 c18 -46 -71 -104
-160 -104 -87 0 -121 33 -98 94 5 14 8 14 30 0 41 -27 86 -27 145 0 65 29 75
31 83 10z m86 -5 c58 -30 123 -36 156 -14 22 14 28 15 35 4 29 -46 -18 -89
-96 -89 -85 0 -176 61 -158 106 7 19 15 18 63 -7z m-807 -83 c42 -9 125 -19
185 -23 171 -10 217 -41 250 -170 9 -37 22 -75 27 -84 6 -9 47 -35 93 -58 125
-63 148 -111 126 -262 -8 -52 -16 -147 -17 -211 -2 -65 -6 -120 -9 -123 -3 -3
-11 9 -18 27 -9 22 -14 101 -16 233 -4 245 7 222 -169 332 -20 12 -39 40 -60
89 -53 125 -71 138 -223 159 -175 25 -317 70 -369 118 -37 34 -27 36 50 12 39
-13 107 -30 150 -39z m1667 40 c0 -2 -6 -9 -14 -15 -11 -9 -16 -9 -22 0 -4 7
-3 9 4 5 6 -3 13 -2 17 4 6 10 15 14 15 6z m-925 -26 c11 -18 81 -58 116 -67
23 -6 35 -17 40 -34 11 -38 10 -115 -2 -146 -21 -56 -117 -133 -166 -133 -38
0 -122 59 -148 104 -23 39 -26 53 -23 122 l3 78 32 7 c37 7 123 56 123 69 0
13 17 13 25 0z m865 -15 c-44 -26 -172 -62 -275 -79 -55 -9 -115 -19 -133 -22
-48 -8 -95 -61 -127 -144 -27 -70 -29 -72 -109 -124 -44 -29 -88 -61 -96 -71
-12 -14 -17 -63 -22 -219 -8 -228 -7 -218 -25 -234 -11 -11 -13 1 -13 70 0 46
-7 135 -16 200 -9 64 -14 131 -10 150 10 54 58 103 139 141 40 19 78 41 84 49
7 8 19 42 27 76 33 141 78 172 270 183 72 5 158 15 191 22 33 8 78 15 100 15
40 1 40 1 15 -13z m-1084 -74 c13 -11 7 -61 -8 -61 -19 0 -66 30 -72 45 -8 21
-8 60 0 68 6 6 19 -3 80 -52z m504 26 c0 -32 -25 -63 -60 -75 -29 -11 -30 -10
-30 21 0 26 7 36 38 53 48 28 52 28 52 1z m-1005 -70 c44 -14 119 -30 167 -37
86 -13 112 -26 120 -60 4 -22 -4 -24 -80 -17 -113 11 -298 83 -374 147 -55 46
-46 53 25 20 34 -16 98 -40 142 -53z m1565 28 c-7 -8 -16 -12 -21 -9 -5 3 -9
0 -9 -6 0 -31 -280 -130 -367 -130 -39 0 -41 10 -10 43 18 20 39 26 117 37 52
7 138 27 190 45 115 39 116 39 100 20z m-1054 -118 c8 -37 -1 -45 -33 -27 -25
14 -48 64 -37 81 9 16 64 -26 70 -54z m-495 -20 c79 -37 139 -56 214 -67 117
-18 118 -18 140 -34 18 -13 21 -30 26 -173 5 -141 9 -167 36 -245 17 -49 29
-88 28 -88 -2 0 -22 27 -44 61 -54 80 -81 171 -89 293 l-7 99 -85 17 c-117 24
-227 76 -295 141 -30 28 -55 56 -55 60 0 5 22 -4 48 -20 27 -16 64 -35 83 -44z
m957 46 c-3 -26 -52 -72 -64 -61 -12 13 8 66 29 76 34 16 39 14 35 -15z m519
-25 c-8 -13 -22 -22 -31 -22 -9 1 -14 -2 -11 -6 15 -25 -173 -113 -281 -131
l-71 -12 -6 -106 c-6 -109 -26 -186 -68 -261 -13 -22 -26 -40 -31 -40 -10 0
-11 -6 13 70 17 51 22 96 25 205 1 77 3 146 3 152 2 24 51 45 128 54 100 13
192 40 273 83 36 19 67 34 69 35 2 1 -3 -9 -12 -21z m-1879 -153 c-3 -3 -9 2
-12 12 -6 14 -5 15 5 6 7 -7 10 -15 7 -18z m890 -103 c16 -16 19 -37 20 -153
0 -77 7 -168 16 -213 9 -44 14 -81 12 -83 -6 -6 -54 111 -70 172 -18 65 -33
253 -23 279 8 21 23 20 45 -2z m460 -99 c-3 -92 -10 -137 -32 -205 -29 -94
-53 -129 -42 -62 4 22 9 109 12 194 6 159 15 190 52 190 12 0 13 -20 10 -117z
m851 90 c0 -11 -3 -13 -6 -5 -2 6 -10 9 -15 6 -7 -4 -8 -2 -4 4 11 18 26 14
25 -5z m-1806 -41 c24 -26 26 -65 4 -70 -16 -3 -17 -1 -5 17 11 17 10 23 -4
37 -22 22 -48 11 -48 -21 0 -28 -16 -66 -34 -77 -33 -22 -77 16 -75 65 l1 32
7 -31 c10 -40 19 -54 36 -54 17 0 35 31 35 61 0 27 27 59 50 59 9 0 24 -8 33
-18z m63 -149 c35 -81 40 -97 19 -60 -9 15 -19 27 -24 27 -4 0 -35 -13 -69
-30 -34 -16 -67 -30 -72 -30 -18 0 -10 15 13 26 123 59 132 69 98 103 -18 18
-18 31 -1 31 4 0 20 -30 36 -67z m-414 20 c-2 -12 -6 -23 -7 -23 -1 0 -5 11
-7 23 -3 14 0 24 7 24 7 0 10 -10 7 -24z m2079 -56 c-10 -9 -11 -8 -5 6 3 10
9 15 12 12 3 -3 0 -11 -7 -18z m-8 -32 c-3 -9 -8 -14 -10 -11 -3 3 -2 9 2 15
9 16 15 13 8 -4z m-1593 -65 c0 -11 -14 -34 -31 -52 l-31 -33 26 49 c14 26 23
53 19 59 -3 6 -1 7 5 3 7 -4 12 -16 12 -26z m-407 -10 c3 -11 1 -18 -4 -14 -5
3 -9 12 -9 20 0 20 7 17 13 -6z m1948 -47 c-12 -20 -14 -14 -5 12 4 9 9 14 11
11 3 -2 0 -13 -6 -23z m-30 -56 c-10 -9 -11 -8 -5 6 3 10 9 15 12 12 3 -3 0
-11 -7 -18z m-1871 3 c0 -5 -5 -10 -11 -10 -5 0 -7 5 -4 10 3 6 8 10 11 10 2
0 4 -4 4 -10z m21 -37 c13 -16 12 -17 -3 -4 -10 7 -18 15 -18 17 0 8 8 3 21
-13z m1849 7 c0 -5 -5 -10 -11 -10 -5 0 -7 5 -4 10 3 6 8 10 11 10 2 0 4 -4 4
-10z m-1575 -349 c-6 -5 -25 10 -25 20 0 5 6 4 14 -3 8 -7 12 -15 11 -17z
m1295 9 c0 -5 -2 -10 -4 -10 -3 0 -8 5 -11 10 -3 6 -1 10 4 10 6 0 11 -4 11
-10z m-1155 -100 c3 -5 1 -10 -4 -10 -6 0 -11 5 -11 10 0 6 2 10 4 10 3 0 8
-4 11 -10z m1005 -10 c-8 -5 -17 -7 -19 -4 -3 3 1 9 9 14 8 5 17 7 19 4 3 -3
-1 -9 -9 -14z m-920 -40 c0 -5 -4 -10 -10 -10 -5 0 -10 5 -10 10 0 6 5 10 10
10 6 0 10 -4 10 -10z m45 -20 c3 -5 1 -10 -4 -10 -6 0 -11 5 -11 10 0 6 2 10
4 10 3 0 8 -4 11 -10z m180 -60 c-3 -5 -12 -10 -18 -10 -7 0 -6 4 3 10 19 12
23 12 15 0z"/>
<path d="M1018 1429 c-30 -17 -20 -29 22 -29 43 0 52 13 21 30 -23 12 -22 12
-43 -1z"/>
<path d="M1182 1428 c-21 -21 -13 -28 28 -28 43 0 52 13 21 30 -25 13 -34 13
-49 -2z"/>
<path d="M1105 1330 c3 -5 15 -10 26 -10 10 0 19 5 19 10 0 6 -12 10 -26 10
-14 0 -23 -4 -19 -10z"/>
<path d="M1080 1265 c7 -8 27 -15 45 -15 18 0 38 7 45 15 11 13 5 15 -45 15
-50 0 -56 -2 -45 -15z"/>
</g>
</svg>
